<svg width="26" height="22" viewBox="0 0 26 22" fill="none" xmlns="http://www.w3.org/2000/svg">
<ellipse cx="12.5732" cy="6.67185" rx="5.05688" ry="4.37986" stroke="#807A7A" stroke-width="1.5" stroke-linecap="round" stroke-linejoin="round"/>
<path fill-rule="evenodd" clip-rule="evenodd" d="M4.55202 17.1436C4.55066 16.8357 4.63017 16.5315 4.78452 16.2542C5.26889 15.4151 6.63483 14.9704 7.76827 14.7691C8.5857 14.618 9.41443 14.517 10.2483 14.467C11.7921 14.3495 13.3448 14.3495 14.8886 14.467C15.7224 14.5176 16.551 14.6185 17.3686 14.7691C18.502 14.9704 19.868 15.3732 20.3523 16.2542C20.6627 16.8196 20.6627 17.476 20.3523 18.0414C19.868 18.9224 18.502 19.3251 17.3686 19.5181C16.5521 19.6754 15.7231 19.7792 14.8886 19.8286C13.6321 19.9208 12.3697 19.9376 11.1105 19.8789C10.8198 19.8789 10.5389 19.8789 10.2483 19.8286C9.41689 19.7798 8.59104 19.676 7.77796 19.5181C6.63483 19.3251 5.27858 18.9224 4.78452 18.0414C4.63095 17.7608 4.55153 17.4541 4.55202 17.1436Z" stroke="#807A7A" stroke-width="1.5" stroke-linecap="round" stroke-linejoin="round"/>
</svg>
